<?xml version="1.0" encoding="UTF-8" standalone="no"?>
<!DOCTYPE svg PUBLIC "-//W3C//DTD SVG 1.1//EN" "http://www.w3.org/Graphics/SVG/1.1/DTD/svg11.dtd">
<svg width="100%" height="100%" viewBox="0 0 1080 1080" version="1.1" xmlns="http://www.w3.org/2000/svg" xmlns:xlink="http://www.w3.org/1999/xlink" xml:space="preserve" xmlns:serif="http://www.serif.com/" style="fill-rule:evenodd;clip-rule:evenodd;stroke-linecap:round;stroke-linejoin:round;stroke-miterlimit:1.5;">
    <g transform="matrix(1,0,0,1,0,-1213.87)">
        <g id="PFP" transform="matrix(1,0,0,1,0,1213.87)">
            <rect x="0" y="0" width="1080" height="1080" style="fill:none;"/>
            <g id="Logo" transform="matrix(1.61207,0,0,1.61207,-297.657,-266.035)">
                <g transform="matrix(0.69282,0.4,-4.44089e-17,0.92376,103.923,100)">
                    <rect x="400" y="173.205" width="200" height="173.205" style="fill:rgb(255,45,64);stroke:black;stroke-width:15.14px;"/>
                </g>
                <g transform="matrix(0.69282,-0.4,4.44089e-17,0.92376,103.923,100)">
                    <rect x="600" y="692.82" width="200" height="173.205" style="fill:rgb(255,236,16);stroke:black;stroke-width:26.05px;"/>
                </g>
                <g transform="matrix(0.69282,-0.4,0.8,0.46188,103.923,100)">
                    <rect x="-200" y="519.615" width="200" height="173.205" style="fill:rgb(30,90,248);stroke:black;stroke-width:15.14px;"/>
                </g>
                <path d="M744.782,370L519.615,240L294.449,370L294.449,630L519.615,760L744.782,630L658.179,580L519.615,660L381.051,580L381.051,420L519.615,340L658.179,420L744.782,370Z" style="fill:rgb(233,233,233);stroke:black;stroke-width:16px;"/>
            </g>
        </g>
    </g>
</svg>
